<?xml version="1.0" standalone="no"?>
<!DOCTYPE svg PUBLIC "-//W3C//DTD SVG 20010904//EN"
 "http://www.w3.org/TR/2001/REC-SVG-20010904/DTD/svg10.dtd">
<svg version="1.0" xmlns="http://www.w3.org/2000/svg"
 width="700.000000pt" height="700.000000pt" viewBox="0 0 700.000000 700.000000"
 preserveAspectRatio="xMidYMid meet">
<metadata>
Created by potrace 1.14, written by Peter Selinger 2001-2017
</metadata>
<g transform="translate(0.000000,700.000000) scale(0.100000,-0.100000)"
fill="#000000" stroke="none">
<path d="M3278 6995 c-1 -1 -42 -5 -89 -9 -47 -4 -95 -8 -105 -10 -10 -2 -48
-7 -84 -12 -36 -4 -67 -8 -70 -9 -3 -1 -25 -5 -50 -9 -25 -4 -101 -21 -170
-38 -69 -16 -135 -31 -147 -34 -40 -8 -263 -84 -366 -125 -122 -49 -359 -165
-447 -219 -36 -22 -72 -43 -80 -46 -15 -7 -211 -138 -240 -161 -240 -185 -376
-310 -546 -498 -221 -246 -445 -591 -569 -875 -25 -58 -50 -114 -55 -125 -45
-93 -150 -427 -176 -560 -2 -11 -10 -54 -19 -95 -29 -147 -35 -192 -52 -370
-15 -162 -8 -591 12 -711 2 -13 6 -46 9 -74 12 -105 35 -222 72 -370 26 -104
82 -289 94 -315 5 -8 25 -60 45 -115 62 -165 251 -535 312 -610 4 -6 29 -42
54 -80 169 -257 438 -545 719 -770 92 -74 370 -265 386 -265 4 0 15 -6 23 -14
26 -22 241 -131 363 -184 269 -117 594 -212 843 -248 22 -3 47 -7 55 -9 8 -2
47 -7 85 -11 39 -3 84 -8 100 -10 17 -2 102 -7 190 -10 148 -6 164 -5 205 14
129 59 165 214 74 320 -49 58 -87 69 -259 76 -83 4 -161 8 -175 10 -14 3 -52
7 -85 10 -33 3 -71 8 -85 11 -14 3 -45 8 -70 11 -25 3 -53 8 -62 10 -10 3 -30
8 -45 10 -134 24 -433 117 -578 181 -389 170 -687 372 -975 662 -140 141 -148
149 -241 266 -330 413 -573 973 -634 1464 -4 30 -8 62 -10 72 -26 134 -26 554
0 759 75 594 321 1156 703 1610 95 112 322 332 437 423 308 246 636 419 1010
535 122 38 265 74 345 87 19 3 46 7 60 10 150 28 304 40 515 40 147 0 318 -9
373 -20 19 -3 121 -18 137 -20 33 -3 117 -21 235 -50 425 -105 823 -301 1175
-581 97 -77 359 -330 423 -407 162 -198 289 -386 385 -569 154 -295 276 -658
313 -935 3 -26 8 -51 10 -54 1 -3 6 -35 9 -71 4 -35 8 -78 10 -94 2 -16 7 -96
10 -179 8 -172 19 -210 77 -259 112 -97 291 -44 329 97 10 37 5 368 -5 386 -2
3 -7 42 -11 86 -3 43 -8 82 -10 85 -2 3 -6 30 -10 60 -3 30 -10 71 -15 90 -5
19 -12 51 -15 70 -13 75 -67 275 -106 392 -349 1040 -1170 1860 -2209 2207
-174 59 -390 112 -550 136 -25 4 -54 9 -65 11 -10 2 -49 6 -85 10 -36 3 -78 8
-95 11 -33 5 -531 13 -537 8z"/>
<path d="M3500 5354 c-8 -2 -31 -5 -51 -9 -55 -8 -125 -75 -143 -134 -32 -108
9 -426 84 -653 36 -109 141 -325 202 -418 119 -181 236 -307 429 -464 37 -31
176 -122 225 -147 24 -13 44 -27 44 -30 0 -3 -12 -11 -27 -18 -52 -24 -228
-143 -303 -206 -165 -138 -341 -349 -430 -518 -14 -26 -27 -47 -30 -47 -3 0
-16 21 -30 47 -30 57 -120 192 -169 253 -54 68 -218 231 -291 289 -36 28 -71
56 -78 62 -30 25 -175 110 -252 149 -149 75 -360 146 -490 165 -24 4 -47 8
-50 10 -8 5 -157 17 -236 19 -102 3 -154 -15 -202 -69 -57 -65 -69 -152 -32
-225 41 -80 98 -111 214 -116 74 -3 159 -12 196 -19 8 -2 33 -6 56 -9 162 -25
393 -126 558 -244 79 -57 213 -181 276 -257 49 -59 133 -190 173 -271 37 -74
101 -247 112 -305 4 -19 10 -54 15 -79 8 -39 17 -126 23 -225 l2 -30 205 0
205 0 1 35 c4 139 34 303 79 435 31 93 117 260 183 355 79 114 227 263 339
343 226 161 512 260 771 268 55 2 63 5 67 23 9 48 2 385 -9 389 -6 2 -33 4
-61 5 -447 17 -883 269 -1139 659 -80 122 -173 339 -192 447 -3 17 -9 50 -14
72 -10 42 -16 108 -24 241 -6 83 -23 127 -69 170 -32 30 -108 61 -137 57z"/>
</g>
</svg>
